<svg xmlns="http://www.w3.org/2000/svg" width="32" height="32" viewBox="0 0 30 32" fill="none">
    <g clip-path="url(#clip0_pure_logo)">
        <path d="M11.505 21.5151L2.27812 17.0222L0 23.9554L9.22692 28.4483L11.505 21.5151Z" fill="#533BEB"></path>
        <path d="M19.0907 0H9.87365C8.85549 0 7.81653 0.8001 7.55307 1.78708L0.110033 29.6656C-0.153467 30.6525 0.458225 31.4526 1.47638 31.4526H8.85007C9.86822 31.4526 10.9071 30.6525 11.1706 29.6656L12.0295 26.4488C12.293 25.4619 13.3321 24.6734 14.3753 24.5492C17.4107 24.1879 20.484 22.9672 23.1167 21.0501C26.2923 18.7376 28.5669 15.6012 29.4401 12.3309C30.3131 9.06051 29.7133 5.92413 27.7725 3.61163C25.8316 1.29916 22.7087 1.82753e-05 19.0907 0Z" fill="white"></path>
        <path d="M0.0996094 23.6603L13.1708 17.2955C13.7789 16.9994 14.4085 17.1751 14.577 17.688L15.1048 19.2943C15.3397 20.0091 16.404 20.0091 17.0205 19.2943L27.0956 7.61365C27.7122 6.89881 27.4186 6.00528 26.5671 6.00528H12.6541C11.8026 6.00528 11.0319 6.89881 11.2668 7.61365L11.6886 8.89758C11.8571 9.41039 11.5008 10.0662 10.8928 10.3623L2.56765 14.4161L0.0996094 23.6603Z" fill="url(#paint_pure_gradient)"></path>
    </g>
    <defs>
        <linearGradient id="paint_pure_gradient" x1="27.6323" y1="6.00675" x2="5.52866" y2="13.4432" gradientUnits="userSpaceOnUse">
            <stop stop-color="#2B99FF"></stop>
            <stop offset="1" stop-color="#725BFF"></stop>
        </linearGradient>
        <clipPath id="clip0_pure_logo">
            <rect width="30" height="32" fill="white"></rect>
        </clipPath>
    </defs>
</svg>
